<svg width="353" height="152" viewBox="0 0 353 152" fill="none" xmlns="http://www.w3.org/2000/svg">
<g clip-path="url(#clip0_1120_10977)">
<path d="M288.712 87.6337C283.86 87.6337 281.2 86.9687 277.115 85.2903L275.602 84.6L273.885 94.575C276.837 95.791 282.157 96.836 287.66 96.9183C300.587 96.9183 309.035 90.9207 309.137 81.693C309.238 76.62 305.907 72.7693 298.87 69.5963C294.602 67.538 291.942 66.1573 291.942 64.0673C291.942 62.218 294.215 60.2483 298.965 60.2483C302.122 60.1724 305.26 60.7525 308.18 61.952L309.32 62.4587L311.037 52.8193L310.739 52.8827C307.204 51.6139 303.474 50.9772 299.719 51.0017C287.559 51.0017 278.977 57.0436 278.914 65.7013C278.838 72.0663 285.019 75.651 289.687 77.7853C294.481 79.9703 296.084 81.3447 296.071 83.308C296.039 86.291 292.239 87.6337 288.712 87.6337ZM342.298 51.8187H332.798C329.84 51.8187 327.63 52.6103 326.332 55.511L308.06 96.2977H320.986L323.57 89.6223L339.34 89.635C339.727 91.193 340.86 96.2977 340.86 96.2977H352.254L342.298 51.8187ZM327.111 80.496L332.013 68.0636C331.949 68.1903 333.026 65.4923 333.647 63.8203L334.489 67.6583L337.333 80.496H327.111ZM253.733 95.943H266.045L273.74 51.445H261.434V51.4323L253.733 95.943ZM231.433 82.149L230.154 75.9677V75.9867L225.834 55.5553C225.093 52.7243 222.927 51.8883 220.242 51.787H200.412L200.254 52.7243C204.719 53.7693 208.741 55.283 212.338 57.1387C212.897 57.4652 213.306 57.997 213.478 58.6206L224.118 96.2343H237.127L256.513 51.8187H243.473L231.433 82.149Z" fill="#191E6E"/>
</g>
<g clip-path="url(#clip1_1120_10977)">
<path d="M91.661 47.5464H60.2451V104.452H91.661V47.5464Z" fill="#FF5F00"/>
<path d="M62.2445 75.9997C62.2395 70.5193 63.4716 65.1096 65.8474 60.18C68.2233 55.2505 71.6806 50.9304 75.9576 47.5469C70.6611 43.3504 64.3001 40.7407 57.6016 40.016C50.9032 39.2913 44.1377 40.4809 38.0782 43.4488C32.0188 46.4166 26.91 51.0431 23.3358 56.7992C19.7616 62.5554 17.8662 69.2091 17.8662 75.9997C17.8662 82.7904 19.7616 89.4441 23.3358 95.2002C26.91 100.956 32.0188 105.583 38.0782 108.551C44.1377 111.519 50.9032 112.708 57.6016 111.983C64.3001 111.259 70.6611 108.649 75.9576 104.453C71.6806 101.069 68.2233 96.7489 65.8475 91.8194C63.4716 86.8899 62.2396 81.4802 62.2445 75.9997Z" fill="#EB001B"/>
<path d="M134.048 75.9995C134.048 82.7901 132.153 89.4437 128.579 95.1999C125.005 100.956 119.896 105.582 113.837 108.55C107.777 111.518 101.012 112.708 94.3137 111.983C87.6153 111.259 81.2544 108.649 75.958 104.452C80.2313 101.065 83.6859 96.7446 86.0614 91.8159C88.4368 86.8871 89.6711 81.4791 89.6711 75.9995C89.6711 70.5199 88.4368 65.1119 86.0614 60.1831C83.6859 55.2544 80.2313 50.9336 75.958 47.5466C81.2544 43.3501 87.6153 40.7404 94.3137 40.0158C101.012 39.2911 107.777 40.4807 113.837 43.4486C119.896 46.4165 125.005 51.0429 128.579 56.7991C132.153 62.5553 134.048 69.2089 134.048 75.9995Z" fill="#F79E1B"/>
<path d="M130.62 98.4257V97.2607H131.086V97.0233H129.899V97.2607H130.366V98.4257H130.62ZM132.925 98.4257V97.021H132.561L132.142 97.9872L131.724 97.021H131.36V98.4257H131.617V97.3661L132.009 98.2796H132.275L132.668 97.3638V98.4257H132.925Z" fill="#F79E1B"/>
</g>
<defs>
<clipPath id="clip0_1120_10977">
<rect width="152" height="152" fill="white" transform="translate(200.254)"/>
</clipPath>
<clipPath id="clip1_1120_10977">
<rect width="152" height="108.571" fill="white" transform="translate(0.00195312 21.7144)"/>
</clipPath>
</defs>
</svg>
